<svg id="web" xmlns="http://www.w3.org/2000/svg" width="40" height="40" viewBox="0 0 101.653 101.653">
  <path id="Path_9" data-name="Path 9" d="M0,0H101.653V101.653H0Z" fill="none"/>
  <path id="Path_10" data-name="Path 10" d="M16.942,12.471h76.24V4H16.942a8.5,8.5,0,0,0-8.471,8.471V59.062H0V71.768H59.3V59.062H16.942Zm80.475,8.471H72a4.248,4.248,0,0,0-4.236,4.236V67.533A4.248,4.248,0,0,0,72,71.768H97.417a4.248,4.248,0,0,0,4.236-4.236V25.178A4.248,4.248,0,0,0,97.417,20.942Zm-4.236,38.12H76.24V29.413H93.182Z" transform="translate(0 12.942)" fill="red"/>
</svg>
